<svg width="12" height="14" viewBox="0 0 12 14" fill="black" xmlns="http://www.w3.org/2000/svg">
<path d="M1.89375 13.75C1.59375 13.75 1.33125 13.6375 1.10625 13.4125C0.88125 13.1875 0.76875 12.925 0.76875 12.625V1.9375H0.5625C0.4 1.9375 0.265625 1.88437 0.159375 1.77812C0.0531251 1.67187 0 1.5375 0 1.375C0 1.2125 0.0531251 1.07813 0.159375 0.971875C0.265625 0.865625 0.4 0.8125 0.5625 0.8125H3.525C3.525 0.65 3.57813 0.515625 3.68438 0.409375C3.79063 0.303125 3.925 0.25 4.0875 0.25H7.9125C8.075 0.25 8.20937 0.303125 8.31562 0.409375C8.42188 0.515625 8.475 0.65 8.475 0.8125H11.4375C11.6 0.8125 11.7344 0.865625 11.8406 0.971875C11.9469 1.07813 12 1.2125 12 1.375C12 1.5375 11.9469 1.67187 11.8406 1.77812C11.7344 1.88437 11.6 1.9375 11.4375 1.9375H11.2313V12.625C11.2313 12.925 11.1187 13.1875 10.8937 13.4125C10.6687 13.6375 10.4062 13.75 10.1063 13.75H1.89375ZM1.89375 1.9375V12.625H10.1063V1.9375H1.89375ZM3.88125 10.45C3.88125 10.6125 3.93437 10.7469 4.04062 10.8531C4.14687 10.9594 4.28125 11.0125 4.44375 11.0125C4.60625 11.0125 4.74062 10.9594 4.84687 10.8531C4.95312 10.7469 5.00625 10.6125 5.00625 10.45V4.09375C5.00625 3.93125 4.95312 3.79688 4.84687 3.69063C4.74062 3.58438 4.60625 3.53125 4.44375 3.53125C4.28125 3.53125 4.14687 3.58438 4.04062 3.69063C3.93437 3.79688 3.88125 3.93125 3.88125 4.09375V10.45ZM6.99375 10.45C6.99375 10.6125 7.04688 10.7469 7.15313 10.8531C7.25938 10.9594 7.39375 11.0125 7.55625 11.0125C7.71875 11.0125 7.85313 10.9594 7.95938 10.8531C8.06563 10.7469 8.11875 10.6125 8.11875 10.45V4.09375C8.11875 3.93125 8.06563 3.79688 7.95938 3.69063C7.85313 3.58438 7.71875 3.53125 7.55625 3.53125C7.39375 3.53125 7.25938 3.58438 7.15313 3.69063C7.04688 3.79688 6.99375 3.93125 6.99375 4.09375V10.45ZM1.89375 1.9375V12.625V1.9375Z" fill="parent" fill-opacity="0.8"/>
</svg>
