<svg width="22" height="10" viewBox="0 0 22 10" fill="none" xmlns="http://www.w3.org/2000/svg">
<path d="M0.056 10L3.906 0.591999H5.628L9.478 10H7.602L6.734 7.76H2.8L1.932 10H0.056ZM4.774 2.636L3.304 6.402H6.244L4.774 2.636ZM9.38613 7.172V5.8H13.2501V7.172H9.38613ZM19.6158 10V6.57H18.1738L15.8778 10H13.8478L16.4238 6.29C15.7611 6.15 15.2338 5.83267 14.8418 5.338C14.4498 4.84333 14.2538 4.246 14.2538 3.546C14.2538 2.678 14.5571 1.96867 15.1638 1.418C15.7704 0.867333 16.5451 0.591999 17.4878 0.591999H21.4078V10H19.6158ZM19.6158 5.128V2.02H17.7678C17.2731 2.02 16.8671 2.16467 16.5498 2.454C16.2418 2.74333 16.0878 3.11667 16.0878 3.574C16.0878 4.04067 16.2418 4.41867 16.5498 4.708C16.8671 4.988 17.2731 5.128 17.7678 5.128H19.6158Z" fill="#1C1A1D" fill-opacity="0.8"/>
</svg>
