<svg width="23" height="10" viewBox="0 0 23 10" fill="none" xmlns="http://www.w3.org/2000/svg">
<path d="M6.272 10V6.57H4.83L2.534 10H0.504L3.08 6.29C2.41733 6.15 1.89 5.83267 1.498 5.338C1.106 4.84333 0.91 4.246 0.91 3.546C0.91 2.678 1.21333 1.96867 1.82 1.418C2.42667 0.867333 3.20133 0.591999 4.144 0.591999H8.064V10H6.272ZM6.272 5.128V2.02H4.424C3.92933 2.02 3.52333 2.16467 3.206 2.454C2.898 2.74333 2.744 3.11667 2.744 3.574C2.744 4.04067 2.898 4.41867 3.206 4.708C3.52333 4.988 3.92933 5.128 4.424 5.128H6.272ZM9.55019 7.172V5.8H13.4142V7.172H9.55019ZM13.3314 10L17.1814 0.591999H18.9034L22.7534 10H20.8774L20.0094 7.76H16.0754L15.2074 10H13.3314ZM18.0494 2.636L16.5794 6.402H19.5194L18.0494 2.636Z" fill="#1C1A1D" fill-opacity="0.8"/>
</svg>
